<svg width="11" height="11" viewBox="0 0 11 11" fill="none" xmlns="http://www.w3.org/2000/svg">
<path d="M8.77171 4.02233H4.88585C4.40894 4.02233 4.02233 4.40895 4.02233 4.88586V8.77171C4.02233 9.24862 4.40894 9.63524 4.88585 9.63524H8.77171C9.24862 9.63524 9.63524 9.24862 9.63524 8.77171V4.88586C9.63524 4.40895 9.24862 4.02233 8.77171 4.02233Z" stroke="#A63131" stroke-linecap="round" stroke-linejoin="round"/>
<path d="M2.29529 6.6129H1.86352C1.6345 6.6129 1.41486 6.52193 1.25292 6.35998C1.09098 6.19804 1 5.9784 1 5.74938V1.86352C1 1.6345 1.09098 1.41486 1.25292 1.25292C1.41486 1.09098 1.6345 1 1.86352 1H5.74938C5.9784 1 6.19804 1.09098 6.35998 1.25292C6.52193 1.41486 6.6129 1.6345 6.6129 1.86352V2.29529" stroke="#A63131" stroke-linecap="round" stroke-linejoin="round"/>
</svg>
