<svg width="128" height="36" viewBox="0 0 128 36" fill="none" xmlns="http://www.w3.org/2000/svg">
<path d="M12.7954 19.3573H11.5154V20.6129H5.1177V25.6332H0V13.0813H11.5154V14.3369H12.7954V19.3573ZM7.6777 18.1016V15.5903H5.1177V18.1016H7.6777Z" fill="#770606"/>
<path d="M28.1485 25.6308H15.3531V13.0811H20.4708V23.1218H28.1485V25.6308Z" fill="#770606"/>
<path d="M43.5016 25.6308H38.3839V20.6105H35.8239V25.6308H30.7062V14.3345H31.9862V13.0788H42.2216V14.3345H43.5016V25.6308ZM38.3839 18.1014V15.5901H35.8239V18.1014H38.3839Z" fill="#770606"/>
<path d="M58.857 19.3571H57.577V20.6127H55.017V25.633H49.8993V20.6105H47.3393V19.3571H46.0593V13.0811H51.177V18.1014H53.737V13.0811H58.8547V19.3571H58.857Z" fill="#770606"/>
<path d="M74.2101 25.6308H62.6947V24.3751H61.4147V14.3345H62.6947V13.0788H74.2101V15.5901H66.5324V18.1014H70.3701V20.6127H66.5324V23.124H74.2101V25.6308Z" fill="#770606"/>
<path d="M89.5632 25.6308H84.4455V20.6105H81.8878V25.6308H76.7701V13.0811H88.2855V14.3367H89.5655V18.1014H88.2855V20.6127H89.5655V25.6308H89.5632ZM84.4455 18.1014V15.5901H81.8878V18.1014H84.4455Z" fill="#770606"/>
<path d="M112.594 24.3774H111.314V25.633H99.7986V23.1218H107.476V20.6105H101.079V19.3571H99.7986V14.3345H101.079V13.0788H112.594V15.5901H104.916V18.1014H111.314V19.3571H112.594V24.3774Z" fill="#770606"/>
<path d="M128 25.6308H115.205V19.3571H116.485V18.1014H122.882V15.5901H115.205V13.0811H126.72V14.3367H128V19.3571H126.72V20.6127H120.322V23.124H128V25.6308Z" fill="#770606"/>
<path d="M27.0365 30.7008H29.7669V31.3693H30.4483V34.0477H29.7669V34.7161H30.4483V35.3846H29.0832V34.7161H28.4017V34.0477H27.7203V34.7161H28.4017V35.3846H27.0365V34.7161H26.3551V31.3715H27.0365V30.7008ZM29.0855 31.3715H27.7203V32.7107H28.4017V33.3792H29.0832V31.3715H29.0855Z" fill="#770606"/>
<path d="M31.8135 30.7008H33.1787V34.7184H34.5439V30.7008H35.909V34.7184H35.2276V35.3869H32.4972V34.7184H31.8158V30.7008H31.8135Z" fill="#770606"/>
<path d="M37.9557 30.7008H39.3209V35.3869H37.9557V30.7008Z" fill="#770606"/>
<path d="M41.3698 30.7008H45.4653V32.04H44.7839V32.7085H44.1024V33.3769H43.421V34.0454H42.7396V34.7139H45.4699V35.3824H41.3698V34.0432H42.0512V33.3747H42.7327V32.7062H43.4141V32.0377H44.0955V31.3693H41.3698V30.7008Z" fill="#770606"/>
<path d="M49.5586 30.7008H52.9704V31.3693H53.6518V33.3769H52.9704V34.0454H50.9237V35.3846H49.5586V30.7008ZM52.2866 31.3715H50.9214V33.3792H52.2866V31.3715Z" fill="#770606"/>
<path d="M55.7007 30.7008H58.4311V31.3693H59.1125V35.3869H57.7473V34.0477H56.3821V35.3869H55.017V31.3715H55.6984V30.7008H55.7007ZM57.7473 31.3715H56.3821V33.3792H57.7473V31.3715Z" fill="#770606"/>
<path d="M60.4777 30.7008H63.8895V31.3693H64.5709V33.3769H63.8895V34.7161H64.5709V35.3846H63.2057V34.7161H62.5243V34.0477H61.8429V35.3869H60.4777V30.7008ZM63.2057 31.3715H61.8406V33.3792H63.2057V31.3715Z" fill="#770606"/>
<path d="M66.6198 30.7008H69.3502V31.3693H70.0316V35.3869H68.6665V34.0477H67.3013V35.3869H65.9361V31.3715H66.6175V30.7008H66.6198ZM68.6665 31.3715H67.3013V33.3792H68.6665V31.3715Z" fill="#770606"/>
<path d="M74.8086 30.7008H77.539V31.3693H75.4924V34.7161H77.539V35.3846H74.8086V34.7161H74.1272V31.3715H74.8086V30.7008ZM77.539 31.3715H78.2204V32.04H77.539V31.3715ZM77.539 34.0477H78.2204V34.7161H77.539V34.0477Z" fill="#770606"/>
<path d="M80.2671 30.7008H82.9974V31.3693H83.6789V35.3869H82.3137V34.0477H80.9485V35.3869H79.5833V31.3715H80.2647V30.7008H80.2671ZM82.316 31.3715H80.9508V33.3792H82.316V31.3715Z" fill="#770606"/>
<path d="M85.7278 30.7008H88.4581V31.3693H86.4115V32.7085H88.4581V33.3769H89.1396V34.7161H88.4581V35.3846H85.7278V34.7161H87.7744V33.3769H85.7278V32.7085H85.0463V31.3693H85.7278V30.7008ZM85.044 34.0477H85.7255V34.7161H85.044V34.0477ZM88.4558 31.3715H89.1373V32.04H88.4558V31.3715Z" fill="#770606"/>
<path d="M91.1862 30.7008H93.9165V31.3693H94.598V35.3869H93.2328V34.0477H91.8676V35.3869H90.5024V31.3715H91.1839V30.7008H91.1862ZM93.2351 31.3715H91.8699V33.3792H93.2351V31.3715Z" fill="#770606"/>
<path d="M96.6469 30.7008H98.0121V35.3869H96.6469V30.7008Z" fill="#770606"/>
<path d="M100.74 30.7008H103.471V31.3693H101.424V32.7085H103.471V33.3769H104.152V34.7161H103.471V35.3846H100.74V34.7161H102.787V33.3769H100.74V32.7085H100.059V31.3693H100.74V30.7008ZM100.059 34.0477H100.74V34.7161H100.059V34.0477ZM103.471 31.3715H104.152V32.04H103.471V31.3715Z" fill="#770606"/>
<path d="M63.6109 3.97089C63.2587 3.82184 62.9042 3.69086 62.545 3.57568C62.1859 3.46276 61.882 3.33178 61.6334 3.18047C61.3848 3.03142 61.2743 2.85527 61.2973 2.65201C61.3134 2.51877 61.3755 2.40811 61.4837 2.32229C61.5919 2.23648 61.7209 2.17776 61.8728 2.14614C62.0248 2.11453 62.202 2.09646 62.4069 2.09194C62.6095 2.08742 62.7937 2.0942 62.9594 2.11001C63.1114 2.12356 63.2702 2.14388 63.436 2.16873L63.4406 2.16647C63.4682 2.17098 63.4981 2.17324 63.5281 2.17324C63.703 2.17324 63.8504 2.11227 63.9747 1.98806C64.0967 1.86385 64.1589 1.71931 64.1589 1.55445C64.1589 1.38508 64.0967 1.23828 63.9747 1.11859C63.8826 1.02826 63.7767 0.971797 63.6547 0.949214L63.6455 0.946955C62.4668 0.732411 61.4768 0.768545 60.678 1.05761C59.7341 1.39863 59.3381 2.03097 59.4901 2.95689C59.5384 3.2708 59.6881 3.54632 59.939 3.78571C60.1899 4.02509 60.4754 4.21254 60.7954 4.3503C61.1154 4.48806 61.4308 4.61452 61.7416 4.72744C62.0547 4.84036 62.3148 4.96005 62.5266 5.08652C62.7384 5.21073 62.8443 5.35301 62.8443 5.50883C62.8443 5.72112 62.7269 5.86791 62.4898 5.94921C62.2527 6.03051 61.9534 6.04858 61.585 6.00116C61.2167 5.95373 60.8806 5.89727 60.579 5.83178C60.4961 5.81371 60.4109 5.79339 60.3304 5.77306H60.3235C60.259 5.75499 60.1922 5.74144 60.1186 5.74144C59.9206 5.74144 59.7525 5.8092 59.6144 5.9447C59.4763 6.0802 59.4072 6.24506 59.4072 6.43928C59.4072 6.62672 59.4763 6.78932 59.6144 6.92708C59.7088 7.02193 59.8147 7.08065 59.9344 7.11227L59.9482 7.1213C60.0173 7.13711 60.0886 7.15518 60.16 7.17098C60.5721 7.26132 61.0325 7.32004 61.539 7.34714C62.0478 7.37424 62.5197 7.35391 62.9594 7.28164C63.3991 7.21163 63.7836 7.04452 64.1105 6.78255C64.4374 6.52058 64.6331 6.17279 64.6976 5.74144C64.762 5.3101 64.6837 4.94424 64.4627 4.64163C64.2486 4.34578 63.9632 4.11995 63.6109 3.97089Z" fill="#770606"/>
<path d="M70.9709 3.97089C70.6187 3.82184 70.2642 3.69086 69.9027 3.57568C69.5436 3.46276 69.2397 3.33178 68.9911 3.18047C68.7424 3.03142 68.6296 2.85527 68.6549 2.65201C68.6711 2.51877 68.7332 2.40811 68.8414 2.32229C68.9496 2.23648 69.0785 2.17776 69.2305 2.14614C69.3824 2.11453 69.5597 2.09646 69.7646 2.09194C69.9695 2.08742 70.1537 2.0942 70.3171 2.11001C70.469 2.12356 70.6279 2.14388 70.7937 2.16873L70.7983 2.16647C70.8282 2.17098 70.8558 2.17324 70.8857 2.17324C71.0607 2.17324 71.208 2.11227 71.3324 1.98806C71.4544 1.86385 71.5165 1.71931 71.5165 1.55445C71.5165 1.38508 71.4544 1.23828 71.3324 1.11859C71.2403 1.02826 71.1321 0.971797 71.0124 0.949214L71.0032 0.946955C69.8244 0.732411 68.8345 0.768545 68.0334 1.05761C67.0895 1.39863 66.6958 2.03097 66.8454 2.95689C66.8938 3.2708 67.0434 3.54632 67.2944 3.78571C67.5453 4.02509 67.8331 4.21254 68.1508 4.3503C68.4708 4.48806 68.7862 4.61452 69.097 4.72744C69.4101 4.84036 69.6702 4.96005 69.882 5.08652C70.0938 5.21073 70.1997 5.35301 70.1997 5.50883C70.1997 5.72112 70.0823 5.86791 69.8452 5.94921C69.6103 6.03051 69.3065 6.04858 68.9404 6.00116C68.5721 5.95373 68.236 5.89727 67.9344 5.83178C67.8515 5.81371 67.7663 5.79339 67.6857 5.77306H67.6788C67.6144 5.75499 67.5476 5.74144 67.4739 5.74144C67.276 5.74144 67.1102 5.8092 66.9698 5.9447C66.8316 6.0802 66.7626 6.24506 66.7626 6.43928C66.7626 6.62672 66.8316 6.78932 66.9698 6.92708C67.0619 7.02193 67.1701 7.08065 67.2921 7.11227L67.3059 7.1213C67.3749 7.13711 67.444 7.15518 67.5177 7.17098C67.9298 7.26132 68.3902 7.32004 68.8967 7.34714C69.4054 7.37424 69.8774 7.35391 70.3171 7.28164C70.7568 7.21163 71.1413 7.04452 71.4682 6.78255C71.7951 6.52058 71.9908 6.17279 72.0552 5.74144C72.1197 5.3101 72.0414 4.94424 71.8204 4.64163C71.6086 4.34578 71.3231 4.11995 70.9709 3.97089Z" fill="#770606"/>
<path d="M56.1082 0.901794C55.8596 0.901794 55.6478 0.987612 55.4728 1.15925C55.2978 1.33088 55.2104 1.53865 55.2104 1.78255V6.45283H55.2127C55.2196 6.67641 55.3047 6.87515 55.4728 7.04452C55.6478 7.22067 55.8596 7.30875 56.1082 7.30875C56.3568 7.30875 56.5686 7.22067 56.7459 7.04452C56.914 6.87515 56.9991 6.67641 57.006 6.45283H57.0083V1.78255C57.0083 1.53865 56.9209 1.33088 56.7459 1.15925C56.5686 0.987612 56.3568 0.901794 56.1082 0.901794Z" fill="#770606"/>
<path d="M83.9505 1.15925C83.7755 0.987612 83.5637 0.901794 83.3128 0.901794C83.0642 0.901794 82.8524 0.987612 82.6774 1.15925C82.5024 1.33088 82.415 1.53865 82.415 1.78255V6.45283H82.4173C82.4242 6.67641 82.5094 6.87515 82.6774 7.04452C82.8524 7.22067 83.0642 7.30875 83.3128 7.30875C83.5614 7.30875 83.7732 7.22067 83.9505 7.04452C84.1186 6.87515 84.2037 6.67641 84.2107 6.45283H84.2129V1.78255C84.2129 1.53865 84.1255 1.33088 83.9505 1.15925Z" fill="#770606"/>
<path d="M51.5039 1.61769C50.8201 1.13892 49.8786 0.899536 48.6791 0.899536C48.4397 0.899536 48.2302 0.90857 48.0506 0.92212C47.8711 0.937928 47.6639 0.97632 47.4268 1.03504C47.1919 1.09375 46.9963 1.17731 46.8443 1.28797C46.6924 1.39863 46.5634 1.55446 46.4552 1.75771C46.347 1.96096 46.2941 2.20487 46.2941 2.48716V6.42799C46.2941 6.66286 46.3816 6.86837 46.5565 7.04452C46.7315 7.22067 46.9433 7.30875 47.1919 7.30875C47.4406 7.30875 47.6547 7.22067 47.8296 7.04452C48.0046 6.86837 48.0921 6.66286 48.0921 6.42799V3.18273C48.0921 2.87786 48.1565 2.68138 48.2832 2.59556C48.4121 2.50974 48.6354 2.46684 48.9554 2.46684C49.3376 2.46684 49.6552 2.512 49.9016 2.60234C50.1502 2.69267 50.3321 2.83269 50.4472 3.02013C50.5623 3.20758 50.6383 3.39954 50.6751 3.59601C50.7119 3.79249 50.7304 4.04317 50.7304 4.34805V6.43025C50.7304 6.66512 50.8178 6.87063 50.9928 7.04678C51.1678 7.22293 51.3796 7.31101 51.6282 7.31101C51.8768 7.31101 52.0886 7.22293 52.2636 7.04678C52.4386 6.87063 52.526 6.66512 52.526 6.43025V3.44245C52.5283 2.70396 52.1876 2.09646 51.5039 1.61769Z" fill="#770606"/>
<path d="M78.2665 3.05399C78.1744 3.32048 77.9718 3.45372 77.661 3.45372H75.886C75.9574 3.03819 76.1416 2.7175 76.4385 2.4894C76.7355 2.26131 77.0739 2.14839 77.4584 2.14839C77.7208 2.14839 77.9349 2.2184 78.0938 2.36068C78.301 2.5549 78.3585 2.78751 78.2665 3.05399ZM78.819 1.13665C78.423 0.940173 77.958 0.843063 77.4216 0.843063C76.4938 0.843063 75.7065 1.13439 75.0596 1.71253C74.4126 2.29293 74.088 3.09013 74.088 4.09961C74.088 5.10232 74.4057 5.89952 75.0411 6.48669C75.6765 7.07387 76.4501 7.36971 77.3617 7.36971C77.7047 7.36971 78.0616 7.30874 78.4299 7.18679C78.5128 7.15968 78.5934 7.12581 78.6693 7.09193C78.7591 7.06032 78.8443 7.01063 78.9157 6.93837C79.0423 6.8119 79.1044 6.66285 79.1044 6.49573C79.1044 6.31958 79.0423 6.17052 78.9157 6.04857C78.7891 5.92436 78.6371 5.86339 78.4598 5.86339C78.4115 5.86339 78.3678 5.86791 78.324 5.87694H78.3217C78.2734 5.88823 78.2181 5.90178 78.1606 5.91307C77.9649 5.95146 77.76 5.97179 77.5436 5.97179C77.1683 5.97856 76.8184 5.88146 76.4938 5.67594C76.1692 5.47269 75.9689 5.17459 75.8883 4.78164H77.4239C77.9764 4.78164 78.4506 4.68227 78.8512 4.48805C79.2518 4.29157 79.5396 4.04767 79.7145 3.7586C79.8895 3.46727 79.977 3.15336 79.9724 2.81235C79.9678 2.47134 79.8757 2.15517 79.6915 1.8661C79.5027 1.57477 79.2126 1.33313 78.819 1.13665Z" fill="#770606"/>
<path d="M12.7954 18.5481H11.5154V19.8037H5.1177V24.824H0V12.2721H11.5154V13.5277H12.7954V18.5481ZM7.6777 17.2924V14.7811H5.1177V17.2924H7.6777Z" fill="#FFBA09"/>
<path d="M28.1485 24.8216H15.3531V12.2719H20.4708V22.3126H28.1485V24.8216Z" fill="#FFBA09"/>
<path d="M43.5016 24.8216H38.3839V19.8013H35.8239V24.8216H30.7062V13.5253H31.9862V12.2697H42.2216V13.5253H43.5016V24.8216ZM38.3839 17.2922V14.7809H35.8239V17.2922H38.3839Z" fill="#FFBA09"/>
<path d="M58.857 18.5479H57.577V19.8035H55.017V24.8239H49.8993V19.8013H47.3393V18.5456H46.0593V12.2719H51.177V17.2922H53.737V12.2719H58.8547V18.5479H58.857Z" fill="#FFBA09"/>
<path d="M74.2101 24.8216H62.6947V23.5659H61.4147V13.5253H62.6947V12.2697H74.2101V14.7809H66.5324V17.2922H70.3701V19.8035H66.5324V22.3148H74.2101V24.8216Z" fill="#FFBA09"/>
<path d="M89.5632 24.8216H84.4455V19.8013H81.8878V24.8216H76.7701V12.2719H88.2855V13.5276H89.5655V17.2922H88.2855V19.8035H89.5655V24.8216H89.5632ZM84.4455 17.2922V14.7809H81.8878V17.2922H84.4455Z" fill="#FFBA09"/>
<path d="M112.594 23.5682H111.314V24.8239H99.7986V22.3126H107.476V19.8013H101.079V18.5456H99.7986V13.5253H101.079V12.2697H112.594V14.7809H104.916V17.2922H111.314V18.5479H112.594V23.5682Z" fill="#FFBA09"/>
<path d="M128 24.8216H115.205V18.5479H116.485V17.2922H122.882V14.7809H115.205V12.2719H126.72V13.5276H128V18.5479H126.72V19.8035H120.322V22.3148H128V24.8216Z" fill="#FFBA09"/>
<path d="M27.0365 29.8916H29.7669V30.5601H30.4483V33.2385H29.7669V33.907H30.4483V34.5754H29.0832V33.907H28.4017V33.2385H27.7203V33.907H28.4017V34.5754H27.0365V33.907H26.3551V30.5601H27.0365V29.8916ZM29.0855 30.5623H27.7203V31.9016H28.4017V32.57H29.0832V30.5623H29.0855Z" fill="white"/>
<path d="M31.8135 29.8916H33.1787V33.9092H34.5439V29.8916H35.909V33.9092H35.2276V34.5777H32.4972V33.9092H31.8158V29.8916H31.8135Z" fill="white"/>
<path d="M37.9557 29.8916H39.3209V34.5777H37.9557V29.8916Z" fill="white"/>
<path d="M41.3698 29.8916H45.4653V31.2308H44.7839V31.8993H44.1024V32.5678H43.421V33.2362H42.7396V33.9047H45.4699V34.5732H41.3698V33.234H42.0512V32.5655H42.7327V31.897H43.4141V31.2286H44.0955V30.5601H41.3698V29.8916Z" fill="white"/>
<path d="M49.5586 29.8916H52.9704V30.5601H53.6518V32.5678H52.9704V33.2362H50.9237V34.5754H49.5586V29.8916ZM52.2866 30.5623H50.9214V32.57H52.2866V30.5623Z" fill="white"/>
<path d="M55.7007 29.8916H58.4311V30.5601H59.1125V34.5777H57.7473V33.2385H56.3821V34.5777H55.017V30.5601H55.6984V29.8916H55.7007ZM57.7473 30.5623H56.3821V32.57H57.7473V30.5623Z" fill="white"/>
<path d="M60.4777 29.8916H63.8895V30.5601H64.5709V32.5678H63.8895V33.907H64.5709V34.5754H63.2057V33.907H62.5243V33.2385H61.8429V34.5777H60.4777V29.8916ZM63.2057 30.5623H61.8406V32.57H63.2057V30.5623Z" fill="white"/>
<path d="M66.6198 29.8916H69.3502V30.5601H70.0316V34.5777H68.6665V33.2385H67.3013V34.5777H65.9361V30.5601H66.6175V29.8916H66.6198ZM68.6665 30.5623H67.3013V32.57H68.6665V30.5623Z" fill="white"/>
<path d="M74.8086 29.8916H77.539V30.5601H75.4924V33.907H77.539V34.5754H74.8086V33.907H74.1272V30.5601H74.8086V29.8916ZM77.539 30.5623H78.2204V31.2308H77.539V30.5623ZM77.539 33.2408H78.2204V33.9092H77.539V33.2408Z" fill="white"/>
<path d="M80.2671 29.8916H82.9974V30.5601H83.6789V34.5777H82.3137V33.2385H80.9485V34.5777H79.5833V30.5601H80.2647V29.8916H80.2671ZM82.316 30.5623H80.9508V32.57H82.316V30.5623Z" fill="white"/>
<path d="M85.7278 29.8916H88.4581V30.5601H86.4115V31.8993H88.4581V32.5678H89.1396V33.907H88.4581V34.5754H85.7278V33.907H87.7744V32.5678H85.7278V31.8993H85.0463V30.5601H85.7278V29.8916ZM85.044 33.2408H85.7255V33.9092H85.044V33.2408ZM88.4558 30.5623H89.1373V31.2308H88.4558V30.5623Z" fill="white"/>
<path d="M91.1862 29.8916H93.9165V30.5601H94.598V34.5777H93.2328V33.2385H91.8676V34.5777H90.5024V30.5601H91.1839V29.8916H91.1862ZM93.2351 30.5623H91.8699V32.57H93.2351V30.5623Z" fill="white"/>
<path d="M96.6469 29.8916H98.0121V34.5777H96.6469V29.8916Z" fill="white"/>
<path d="M100.74 29.8916H103.471V30.5601H101.424V31.8993H103.471V32.5678H104.152V33.907H103.471V34.5754H100.74V33.907H102.787V32.5678H100.74V31.8993H100.059V30.5601H100.74V29.8916ZM100.059 33.2408H100.74V33.9092H100.059V33.2408ZM103.471 30.5623H104.152V31.2308H103.471V30.5623Z" fill="white"/>
<path d="M63.6109 3.16171C63.2587 3.01265 62.9042 2.88167 62.545 2.76649C62.1859 2.65357 61.882 2.52259 61.6334 2.37128C61.3848 2.22223 61.2743 2.04608 61.2973 1.84283C61.3134 1.70958 61.3755 1.59892 61.4837 1.51311C61.5919 1.42729 61.7209 1.36857 61.8728 1.33695C62.0248 1.30534 62.202 1.28727 62.4069 1.28275C62.6095 1.27824 62.7937 1.28501 62.9594 1.30082C63.1114 1.31437 63.2702 1.3347 63.436 1.35954L63.4406 1.35728C63.4682 1.3618 63.4981 1.36405 63.5281 1.36405C63.703 1.36405 63.8504 1.30308 63.9747 1.17887C64.0967 1.05466 64.1589 0.910124 64.1589 0.745264C64.1589 0.575887 64.0967 0.429094 63.9747 0.309401C63.8826 0.219067 63.7767 0.162608 63.6547 0.140025L63.6455 0.137766C62.4668 -0.0767775 61.4768 -0.0406438 60.678 0.248426C59.7341 0.589438 59.3381 1.22178 59.4901 2.1477C59.5384 2.46161 59.6881 2.73713 59.939 2.97652C60.1899 3.21591 60.4754 3.40335 60.7954 3.54111C61.1154 3.67887 61.4308 3.80534 61.7416 3.91825C62.0547 4.03117 62.3148 4.15087 62.5266 4.27733C62.7384 4.40154 62.8443 4.54382 62.8443 4.69965C62.8443 4.91193 62.7269 5.05872 62.4898 5.14003C62.2527 5.22133 61.9534 5.23939 61.585 5.19197C61.2167 5.14454 60.8806 5.08808 60.579 5.02259C60.4961 5.00452 60.4109 4.9842 60.3304 4.96387H60.3235C60.259 4.94581 60.1922 4.93226 60.1186 4.93226C59.9206 4.93226 59.7525 5.00001 59.6144 5.13551C59.4763 5.27101 59.4072 5.43587 59.4072 5.63009C59.4072 5.81753 59.4763 5.98013 59.6144 6.11789C59.7088 6.21274 59.8147 6.27146 59.9344 6.30308L59.9482 6.31211C60.0173 6.32792 60.0886 6.34599 60.16 6.3618C60.5721 6.45213 61.0325 6.51085 61.539 6.53795C62.0478 6.56505 62.5197 6.54472 62.9594 6.47246C63.3991 6.40245 63.7836 6.23533 64.1105 5.97336C64.4374 5.71139 64.6331 5.3636 64.6976 4.93226C64.762 4.50091 64.6837 4.13506 64.4627 3.83244C64.2486 3.53659 63.9632 3.31076 63.6109 3.16171Z" fill="white"/>
<path d="M70.9709 3.16171C70.6187 3.01265 70.2642 2.88167 69.9027 2.76649C69.5436 2.65357 69.2397 2.52259 68.9911 2.37128C68.7424 2.22223 68.6296 2.04608 68.655 1.84283C68.6711 1.70958 68.7332 1.59892 68.8414 1.51311C68.9496 1.42729 69.0786 1.36857 69.2305 1.33695C69.3824 1.30534 69.5597 1.28727 69.7646 1.28275C69.9695 1.27824 70.1537 1.28501 70.3171 1.30082C70.4691 1.31437 70.6279 1.3347 70.7937 1.35954L70.7983 1.35728C70.8282 1.3618 70.8558 1.36405 70.8857 1.36405C71.0607 1.36405 71.208 1.30308 71.3324 1.17887C71.4544 1.05466 71.5165 0.910124 71.5165 0.745264C71.5165 0.575887 71.4544 0.429094 71.3324 0.309401C71.2403 0.219067 71.1321 0.162608 71.0124 0.140025L71.0032 0.137766C69.8245 -0.0767775 68.8345 -0.0406438 68.0334 0.248426C67.0895 0.589438 66.6958 1.22178 66.8455 2.1477C66.8938 2.46161 67.0434 2.73713 67.2944 2.97652C67.5453 3.21591 67.8331 3.40335 68.1508 3.54111C68.4708 3.67887 68.7862 3.80534 69.097 3.91825C69.4101 4.03117 69.6702 4.15087 69.882 4.27733C70.0938 4.40154 70.1997 4.54382 70.1997 4.69965C70.1997 4.91193 70.0823 5.05872 69.8452 5.14002C69.6104 5.22133 69.3065 5.23939 68.9404 5.19197C68.5721 5.14454 68.236 5.08808 67.9344 5.02259C67.8515 5.00452 67.7663 4.9842 67.6857 4.96387L67.6834 4.97065C67.619 4.95258 67.5522 4.93903 67.4785 4.93903C67.2806 4.93903 67.1148 5.00678 66.9744 5.14228C66.8363 5.27778 66.7672 5.44264 66.7672 5.63686C66.7672 5.82431 66.8363 5.98691 66.9744 6.12467C67.0665 6.21952 67.1747 6.27824 67.2967 6.30985L67.3105 6.31889C67.3796 6.33469 67.4486 6.35276 67.5223 6.36857C67.9344 6.4589 68.3948 6.51762 68.9013 6.54472C69.4101 6.57182 69.882 6.5515 70.3217 6.47923C70.7614 6.40922 71.1459 6.2421 71.4728 5.98013C71.7997 5.71816 71.9954 5.37038 72.0598 4.93903C72.1243 4.50769 72.046 4.14183 71.825 3.83921C71.6086 3.53659 71.3232 3.31076 70.9709 3.16171Z" fill="white"/>
<path d="M56.1082 0.0926056C55.8596 0.0926056 55.6478 0.178423 55.4728 0.350058C55.2978 0.521693 55.2104 0.729462 55.2104 0.973365V5.64365H55.2127C55.2196 5.86722 55.3047 6.06596 55.4728 6.23533C55.6478 6.41149 55.8596 6.49956 56.1082 6.49956C56.3568 6.49956 56.5686 6.41149 56.7459 6.23533C56.914 6.06596 56.9991 5.86722 57.006 5.64365H57.0083V0.973365C57.0083 0.729462 56.9209 0.521693 56.7459 0.350058C56.5686 0.178423 56.3568 0.0926056 56.1082 0.0926056Z" fill="white"/>
<path d="M83.9505 0.350058C83.7755 0.178423 83.5637 0.0926056 83.3128 0.0926056C83.0642 0.0926056 82.8524 0.178423 82.6774 0.350058C82.5024 0.521693 82.415 0.729462 82.415 0.973365V5.64365H82.4173C82.4242 5.86722 82.5094 6.06596 82.6774 6.23533C82.8524 6.41149 83.0642 6.49956 83.3128 6.49956C83.5614 6.49956 83.7732 6.41149 83.9505 6.23533C84.1186 6.06596 84.2037 5.86722 84.2107 5.64365H84.2129V0.975623C84.2129 0.729462 84.1255 0.521693 83.9505 0.350058Z" fill="white"/>
<path d="M51.5039 0.808504C50.8201 0.329733 49.8786 0.0903473 48.6791 0.0903473C48.4397 0.0903473 48.2302 0.0993807 48.0506 0.112931C47.8711 0.128739 47.6639 0.167131 47.4268 0.225849C47.1919 0.284566 46.9963 0.368125 46.8443 0.478785C46.6924 0.589444 46.5634 0.745271 46.4552 0.948523C46.347 1.15177 46.2941 1.39568 46.2941 1.67797V5.6188C46.2941 5.85367 46.3816 6.05918 46.5565 6.23533C46.7315 6.41149 46.9433 6.49956 47.1919 6.49956C47.4406 6.49956 47.6547 6.41149 47.8296 6.23533C48.0046 6.05918 48.0921 5.85367 48.0921 5.6188V2.37355C48.0921 2.06867 48.1565 1.87219 48.2832 1.78637C48.4121 1.70056 48.6354 1.65765 48.9554 1.65765C49.3376 1.65765 49.6552 1.70281 49.9016 1.79315C50.1502 1.88348 50.3321 2.0235 50.4472 2.21094C50.5623 2.39839 50.6383 2.59035 50.6751 2.78682C50.7119 2.9833 50.7304 3.23398 50.7304 3.53886V5.62106C50.7304 5.85593 50.8178 6.06144 50.9928 6.23759C51.1678 6.41374 51.3796 6.50182 51.6282 6.50182C51.8768 6.50182 52.0886 6.41374 52.2636 6.23759C52.4386 6.06144 52.526 5.85593 52.526 5.62106V2.63326C52.5283 1.89477 52.1876 1.28728 51.5039 0.808504Z" fill="white"/>
<path d="M78.2665 2.2448C78.1744 2.51129 77.9718 2.64453 77.661 2.64453H75.886C75.9574 2.229 76.1416 1.90831 76.4385 1.68022C76.7355 1.45212 77.0739 1.3392 77.4584 1.3392C77.7208 1.3392 77.9349 1.40921 78.0938 1.55149C78.301 1.74571 78.3585 1.97832 78.2665 2.2448ZM78.819 0.327461C78.423 0.130984 77.958 0.0338745 77.4216 0.0338745C76.4938 0.0338745 75.7065 0.325202 75.0596 0.903342C74.4126 1.48374 74.088 2.28094 74.088 3.29042C74.088 4.29313 74.4057 5.09033 75.0411 5.67751C75.6765 6.26468 76.4501 6.56052 77.3617 6.56052C77.7047 6.56052 78.0616 6.49955 78.4299 6.3776C78.5128 6.3505 78.5934 6.31662 78.6693 6.28275C78.7591 6.25113 78.8443 6.20144 78.9157 6.12918C79.0423 6.00271 79.1044 5.85366 79.1044 5.68654C79.1044 5.51039 79.0423 5.36134 78.9157 5.23939C78.7891 5.11518 78.6371 5.0542 78.4598 5.0542C78.4115 5.0542 78.3678 5.05872 78.324 5.06775H78.3217C78.2734 5.07904 78.2181 5.09259 78.1606 5.10388C77.9649 5.14228 77.76 5.1626 77.5436 5.1626C77.1683 5.16938 76.8184 5.07227 76.4938 4.86676C76.1692 4.6635 75.9689 4.3654 75.8883 3.97245H77.4239C77.9764 3.97245 78.4506 3.87308 78.8512 3.67886C79.2518 3.48238 79.5396 3.23848 79.7145 2.94941C79.8895 2.65808 79.977 2.34417 79.9724 2.00316C79.9678 1.66215 79.8757 1.34598 79.6915 1.05691C79.5027 0.765582 79.2126 0.523938 78.819 0.327461Z" fill="white"/>
</svg>
