<svg width="288" height="79" viewBox="0 0 288 79" fill="none" xmlns="http://www.w3.org/2000/svg">
<g clip-path="url(#clip0_217_206342)">
<path d="M28.7908 42.814H25.9097V45.6491H11.5144V56.98H0V28.648H25.9097V31.4831H28.7908V42.814ZM17.2715 39.9837V34.3135H11.5144V39.9789H17.2715V39.9837Z" fill="#600B0B"/>
<path d="M63.3338 56.98H34.5479V28.648H46.0623V51.3098H63.3338V56.98Z" fill="#600B0B"/>
<path d="M97.8817 56.98H86.3674V45.6491H80.6102V56.98H69.0959V31.4831H71.9769V28.648H95.0056V31.4831H97.8866V56.98H97.8817ZM86.3674 39.9837V34.3135H80.6102V39.9789H86.3674V39.9837Z" fill="#600B0B"/>
<path d="M132.43 42.814H129.549V45.6491H123.791V56.98H112.277V45.6491H106.52V42.814H103.639V28.648H115.153V39.9789H120.91V28.648H132.425V42.814H132.43Z" fill="#600B0B"/>
<path d="M166.973 56.98H141.063V54.1449H138.182V31.4831H141.063V28.648H166.973V34.3135H149.701V39.9789H158.339V45.6443H149.701V51.3098H166.973V56.98Z" fill="#600B0B"/>
<path d="M201.521 56.98H190.006V45.6491H184.249V56.98H172.735V28.648H198.645V31.4831H201.526V39.9837H198.645V45.6491H201.526V56.98H201.521ZM190.006 39.9837V34.3135H184.249V39.9789H190.006V39.9837Z" fill="#600B0B"/>
<path d="M253.34 54.1449H250.459V56.98H224.549V51.3146H241.821V45.6491H227.426V42.814H224.545V31.4831H227.426V28.648H253.335V34.3135H236.064V39.9789H250.459V42.814H253.34V54.1449Z" fill="#600B0B"/>
<path d="M288 56.98H259.209V42.814H262.09V39.9789H276.486V34.3135H259.214V28.648H285.124V31.4831H288.005V42.814H285.124V45.6491H270.728V51.3146H288V56.98Z" fill="#600B0B"/>
<path d="M13.2323 68.421H20.9118V69.9343H22.4496V77.4914H20.9118V79.0048H13.2323V68.421ZM19.3739 69.9343H16.3031V77.4914H19.3739V69.9343Z" fill="#600B0B"/>
<path d="M25.5155 68.421H34.728V69.9343H28.5864V72.9562H31.6572V74.4696H28.5864V77.4914H34.728V79.0048H25.5155V68.421Z" fill="#600B0B"/>
<path d="M39.3367 68.421H45.4783V69.9343H40.8696V72.9562H45.4783V74.4696H47.0162V77.4914H45.4783V79.0048H39.3367V77.4914H43.9405V74.4696H39.3367V72.9562H37.7988V69.9343H39.3367V68.421ZM37.8037 75.9781H39.3415V77.4867H37.8037V75.9781ZM45.4783 69.9343H47.0162V71.4477H45.4783V69.9343Z" fill="#600B0B"/>
<path d="M51.62 68.421H57.7616V69.9343H59.2994V79H56.2286V75.9781H53.1578V79H50.087V69.9343H51.62V68.421ZM56.2286 69.9343H53.1578V74.4696H56.2286V69.9343Z" fill="#600B0B"/>
<path d="M62.3702 68.421H71.5827V69.9343H65.4411V72.9562H68.5119V74.4696H65.4411V79.0048H62.3702V68.421Z" fill="#600B0B"/>
<path d="M76.1913 68.421H79.2622V79H76.1913V68.421Z" fill="#600B0B"/>
<path d="M85.4038 68.421H91.5454V69.9343H93.0784V77.4914H91.5454V79.0048H85.4038V77.4914H83.866V69.9343H85.4038V68.421ZM90.0076 69.9343H86.9368V77.4914H90.0076V69.9343Z" fill="#600B0B"/>
<path d="M97.6871 68.421H103.829V69.9343H99.2201V72.9562H103.829V74.4696H105.367V77.4914H103.829V79.0048H97.6871V77.4914H102.291V74.4696H97.6871V72.9562H96.1493V69.9343H97.6871V68.421ZM96.1493 75.9781H97.6871V77.4867H96.1493V75.9781ZM103.829 69.9343H105.367V71.4477H103.829V69.9343Z" fill="#600B0B"/>
<path d="M114.574 68.421H122.254V69.9343H123.791V74.4696H122.254V75.9829H117.645V79.0048H114.574V68.421ZM120.716 69.9343H117.645V74.4696H120.716V69.9343Z" fill="#600B0B"/>
<path d="M128.395 68.421H134.537V69.9343H136.075V79H133.004V75.9781H129.933V79H126.862V69.9343H128.4V68.421H128.395ZM133.004 69.9343H129.933V74.4696H133.004V69.9343Z" fill="#600B0B"/>
<path d="M139.146 68.421H146.825V69.9343H148.363V74.4696H146.825V77.4914H148.363V79.0048H145.292V77.4914H143.759V75.9829H142.221V79.0048H139.15V68.421H139.146ZM145.287 69.9343H142.216V74.4696H145.287V69.9343Z" fill="#600B0B"/>
<path d="M152.962 68.421H159.103V69.9343H160.641V79H157.57V75.9781H154.5V79H151.429V69.9343H152.967V68.421H152.962ZM157.57 69.9343H154.5V74.4696H157.57V69.9343Z" fill="#600B0B"/>
<path d="M169.854 68.421H172.925V71.4429H174.462V72.9562H175.995V74.4696H177.533V68.4258H179.071V79.0048H177.533V77.4914H175.995V75.9829H174.462V74.4696H172.925V79.0048H169.854V68.421Z" fill="#600B0B"/>
<path d="M183.675 68.421H189.817V69.9343H191.354V79H188.284V75.9781H185.213V79H182.142V69.9343H183.68V68.421H183.675ZM188.279 69.9343H185.208V74.4696H188.279V69.9343Z" fill="#600B0B"/>
<path d="M194.42 68.421H195.958V69.9343H197.496V71.4477H199.034V72.961H200.567V71.4477H202.105V69.9343H203.643V68.421H206.713V79H203.643V72.9562H202.105V74.4696H200.567V75.9829H199.034V74.4696H197.496V72.9562H195.958V79H194.42V68.421Z" fill="#600B0B"/>
<path d="M211.312 68.421H217.454V69.9343H218.992V77.4914H217.454V79.0048H211.312V77.4914H209.774V69.9343H211.312V68.421ZM215.921 69.9343H212.85V77.4914H215.921V69.9343Z" fill="#600B0B"/>
<path d="M222.063 68.421H229.742V69.9343H231.28V74.4696H229.742V77.4914H231.28V79.0048H228.209V77.4914H226.676V75.9829H225.138V79.0048H222.067V68.421H222.063ZM228.204 69.9343H225.133V74.4696H228.204V69.9343Z" fill="#600B0B"/>
<path d="M235.879 68.421H242.02V69.9343H243.558V79H240.487V75.9781H237.417V79H234.346V69.9343H235.884V68.421H235.879ZM240.487 69.9343H237.417V74.4696H240.487V69.9343Z" fill="#600B0B"/>
<path d="M246.629 68.421H254.309V69.9343H255.846V77.4914H254.309V79.0048H246.629V68.421ZM252.771 69.9343H249.7V77.4914H252.771V69.9343Z" fill="#600B0B"/>
<path d="M260.45 68.421H266.592V69.9343H268.13V77.4914H266.592V79.0048H260.45V77.4914H258.912V69.9343H260.45V68.421ZM265.054 69.9343H261.983V77.4914H265.054V69.9343Z" fill="#600B0B"/>
<path d="M272.734 68.421H278.875V69.9343H274.271V72.9562H278.875V74.4696H280.413V77.4914H278.875V79.0048H272.734V77.4914H277.337V74.4696H272.734V72.9562H271.196V69.9343H272.734V68.421ZM271.196 75.9781H272.734V77.4867H271.196V75.9781ZM278.875 69.9343H280.413V71.4477H278.875V69.9343Z" fill="#600B0B"/>
<path d="M143.126 8.08868C142.333 7.75345 141.535 7.45653 140.727 7.19792C139.919 6.93931 139.233 6.64718 138.678 6.30716C138.119 5.97193 137.871 5.57444 137.924 5.11469C137.958 4.81298 138.099 4.56395 138.343 4.37239C138.586 4.17604 138.878 4.04194 139.219 3.9749C139.559 3.90306 139.958 3.86475 140.421 3.85517C140.878 3.84559 141.292 3.85996 141.662 3.89348C142.002 3.92701 142.362 3.97011 142.732 4.02758L142.742 4.02279C142.805 4.03236 142.869 4.04194 142.937 4.04194C143.331 4.04194 143.662 3.90306 143.939 3.6253C144.217 3.34753 144.353 3.02188 144.353 2.64833C144.353 2.26521 144.217 1.93476 143.939 1.66179C143.73 1.45586 143.491 1.33135 143.219 1.27867L143.199 1.27388C140.547 0.785395 138.318 0.871598 136.522 1.52291C134.401 2.29394 133.51 3.72108 133.851 5.8091C133.958 6.51788 134.298 7.14045 134.863 7.68161C135.428 8.22277 136.075 8.649 136.79 8.9555C137.51 9.26678 138.221 9.54934 138.922 9.80795C139.623 10.0666 140.211 10.3347 140.688 10.6173C141.165 10.8998 141.404 11.2159 141.404 11.5703C141.404 12.0492 141.141 12.3797 140.61 12.5664C140.08 12.7532 139.399 12.7915 138.571 12.6862C137.744 12.5808 136.99 12.4515 136.308 12.303C136.119 12.2599 135.934 12.2168 135.749 12.1737H135.734C135.588 12.1306 135.437 12.1067 135.277 12.1067C134.834 12.1067 134.454 12.2599 134.143 12.5664C133.831 12.8729 133.676 13.2465 133.676 13.6823C133.676 14.1037 133.831 14.4725 134.143 14.7838C134.352 14.9945 134.595 15.1286 134.863 15.2004L134.897 15.2196C135.053 15.2579 135.213 15.2962 135.374 15.3297C136.299 15.5356 137.335 15.6649 138.474 15.7272C139.618 15.7895 140.683 15.7416 141.671 15.5835C142.659 15.4255 143.526 15.0472 144.26 14.4533C144.995 13.8595 145.438 13.0789 145.579 12.1019C145.725 11.1297 145.55 10.3012 145.054 9.62117C144.562 8.93634 143.92 8.42391 143.126 8.08868Z" fill="#600B0B"/>
<path d="M159.687 8.08868C158.899 7.75345 158.096 7.45653 157.288 7.19792C156.48 6.93931 155.794 6.64718 155.239 6.30716C154.68 5.97193 154.427 5.57444 154.485 5.11469C154.519 4.81298 154.66 4.56395 154.904 4.37239C155.147 4.17604 155.439 4.04194 155.78 3.9749C156.12 3.90306 156.519 3.86475 156.982 3.85517C157.439 3.84559 157.853 3.85996 158.223 3.89348C158.563 3.92701 158.923 3.97011 159.298 4.02758L159.308 4.02279C159.371 4.03236 159.439 4.04194 159.507 4.04194C159.902 4.04194 160.233 3.90306 160.51 3.6253C160.787 3.34753 160.924 3.02188 160.924 2.64833C160.924 2.26521 160.787 1.93476 160.51 1.66179C160.301 1.45586 160.062 1.33135 159.79 1.27867L159.77 1.27388C157.118 0.785395 154.889 0.871598 153.088 1.52291C150.967 2.29394 150.076 3.72108 150.417 5.8091C150.524 6.51788 150.864 7.14045 151.429 7.68161C151.993 8.22277 152.641 8.649 153.356 8.9555C154.076 9.26678 154.787 9.54934 155.488 9.80795C156.188 10.0666 156.777 10.3347 157.254 10.6173C157.731 10.8998 157.97 11.2159 157.97 11.5703C157.97 12.0492 157.707 12.3797 157.171 12.5664C156.641 12.7532 155.96 12.7915 155.137 12.6862C154.31 12.5808 153.556 12.4515 152.869 12.303C152.68 12.2599 152.495 12.2168 152.31 12.1737H152.295C152.149 12.1306 151.998 12.1067 151.838 12.1067C151.395 12.1067 151.015 12.2599 150.704 12.5664C150.392 12.8729 150.237 13.2465 150.237 13.6823C150.237 14.1037 150.392 14.4725 150.704 14.7838C150.913 14.9945 151.156 15.1286 151.429 15.2004L151.463 15.2196C151.614 15.2579 151.774 15.2962 151.94 15.3297C152.865 15.5356 153.901 15.6649 155.045 15.7272C156.188 15.7895 157.254 15.7416 158.242 15.5835C159.23 15.4255 160.096 15.0472 160.831 14.4533C161.566 13.8595 162.009 13.0789 162.15 12.1019C162.296 11.1297 162.121 10.3012 161.624 9.62117C161.123 8.93634 160.481 8.42391 159.687 8.08868Z" fill="#600B0B"/>
<path d="M126.244 1.15894C125.685 1.15894 125.208 1.35529 124.813 1.7432C124.419 2.13111 124.225 2.60044 124.225 3.15118V13.6919H124.229C124.244 14.1995 124.439 14.6449 124.818 15.028C125.213 15.4255 125.689 15.6266 126.249 15.6266C126.809 15.6266 127.286 15.4255 127.68 15.028C128.059 14.6449 128.249 14.1995 128.264 13.6919H128.269V3.15118C128.269 2.60044 128.074 2.13111 127.68 1.7432C127.281 1.35529 126.804 1.15894 126.244 1.15894Z" fill="#600B0B"/>
<path d="M188.892 1.7432C188.498 1.35529 188.021 1.15894 187.461 1.15894C186.901 1.15894 186.425 1.35529 186.03 1.7432C185.636 2.13111 185.441 2.60044 185.441 3.15118V13.6919H185.446C185.461 14.1995 185.656 14.6449 186.03 15.028C186.425 15.4255 186.901 15.6266 187.461 15.6266C188.021 15.6266 188.498 15.4255 188.892 15.028C189.271 14.6449 189.466 14.1947 189.476 13.6919H189.481V3.15118C189.481 2.60044 189.286 2.13111 188.892 1.7432Z" fill="#600B0B"/>
<path d="M115.883 2.77763C114.345 1.69531 112.228 1.15894 109.528 1.15894C108.987 1.15894 108.515 1.17809 108.111 1.21161C107.707 1.24514 107.24 1.33134 106.71 1.46543C106.179 1.59953 105.741 1.7863 105.401 2.03533C105.06 2.28436 104.768 2.63875 104.525 3.0985C104.281 3.55824 104.16 4.10419 104.16 4.74593V13.6392C104.16 14.1708 104.354 14.6353 104.753 15.0328C105.148 15.4303 105.625 15.6314 106.184 15.6314C106.744 15.6314 107.221 15.4303 107.615 15.0328C108.009 14.6353 108.204 14.1708 108.204 13.6392V6.31194C108.204 5.62232 108.35 5.18173 108.637 4.98538C108.924 4.78903 109.43 4.69325 110.15 4.69325C111.012 4.69325 111.722 4.79382 112.282 4.99974C112.842 5.20088 113.25 5.51696 113.508 5.94319C113.771 6.36941 113.942 6.80042 114.019 7.2458C114.102 7.6864 114.141 8.25629 114.141 8.94591V13.644C114.141 14.1755 114.336 14.6401 114.73 15.0376C115.124 15.4351 115.601 15.6362 116.161 15.6362C116.72 15.6362 117.197 15.4351 117.591 15.0376C117.986 14.6401 118.185 14.1755 118.185 13.644V6.8962C118.19 5.22962 117.421 3.85995 115.883 2.77763Z" fill="#600B0B"/>
<path d="M176.098 6.01981C175.888 6.62323 175.436 6.92015 174.735 6.92015H170.744C170.905 5.9815 171.319 5.25835 171.985 4.74592C172.652 4.2335 173.416 3.97489 174.278 3.97489C174.871 3.97489 175.348 4.13293 175.708 4.45379C176.175 4.89439 176.307 5.41639 176.098 6.01981ZM177.339 1.69052C176.448 1.24993 175.402 1.02484 174.195 1.02484C172.107 1.02484 170.336 1.68094 168.88 2.98835C167.425 4.30054 166.695 6.09643 166.695 8.38081C166.695 10.646 167.411 12.4419 168.842 13.7685C170.272 15.095 172.01 15.7607 174.063 15.7607C174.837 15.7607 175.635 15.6218 176.463 15.3489C176.652 15.2866 176.828 15.21 177.003 15.1334C177.207 15.0663 177.392 14.9514 177.558 14.7885C177.84 14.5012 177.981 14.166 177.981 13.7876C177.981 13.3901 177.84 13.0549 177.558 12.7771C177.275 12.4994 176.93 12.3605 176.531 12.3605C176.424 12.3605 176.321 12.3701 176.224 12.3892H176.219C176.107 12.4132 175.991 12.4419 175.854 12.4706C175.411 12.5616 174.954 12.6047 174.467 12.6047C173.621 12.6239 172.837 12.3988 172.107 11.9391C171.377 11.4793 170.924 10.8088 170.744 9.92288H174.195C175.436 9.92288 176.506 9.70258 177.407 9.2572C178.307 8.81182 178.954 8.26587 179.349 7.60977C179.743 6.95367 179.937 6.24011 179.928 5.47386C179.918 4.70282 179.709 3.98926 179.295 3.33795C178.881 2.68185 178.229 2.1359 177.339 1.69052Z" fill="#600B0B"/>
<path d="M28.7908 41.8562H25.9097V44.6913H11.5144V56.0222H0V27.6902H25.9097V30.5253H28.7908V41.8562ZM17.2715 39.0259V33.3557H11.5144V39.0211H17.2715V39.0259Z" fill="#FFBA08"/>
<path d="M63.3338 56.0222H34.5479V27.6902H46.0623V50.352H63.3338V56.0222Z" fill="#FFBA08"/>
<path d="M97.8817 56.0222H86.3674V44.6913H80.6102V56.0222H69.0959V30.5253H71.9769V27.6902H95.0056V30.5253H97.8866V56.0222H97.8817ZM86.3674 39.0259V33.3557H80.6102V39.0211H86.3674V39.0259Z" fill="#FFBA08"/>
<path d="M132.43 41.8562H129.549V44.6913H123.791V56.0222H112.277V44.6913H106.52V41.8562H103.639V27.6902H115.153V39.0211H120.91V27.6902H132.425V41.8562H132.43Z" fill="#FFBA08"/>
<path d="M166.973 56.0222H141.063V53.1871H138.182V30.5253H141.063V27.6902H166.973V33.3557H149.701V39.0211H158.339V44.6865H149.701V50.352H166.973V56.0222Z" fill="#FFBA08"/>
<path d="M201.521 56.0222H190.006V44.6913H184.249V56.0222H172.735V27.6902H198.645V30.5253H201.526V39.0259H198.645V44.6913H201.526V56.0222H201.521ZM190.006 39.0259V33.3557H184.249V39.0211H190.006V39.0259Z" fill="#FFBA08"/>
<path d="M253.34 53.1871H250.459V56.0222H224.549V50.3568H241.821V44.6913H227.426V41.8562H224.545V30.5253H227.426V27.6902H253.335V33.3557H236.064V39.0211H250.459V41.8562H253.34V53.1871Z" fill="#FFBA08"/>
<path d="M288 56.0222H259.209V41.8562H262.09V39.0211H276.486V33.3557H259.214V27.6902H285.124V30.5253H288.005V41.8562H285.124V44.6913H270.728V50.3568H288V56.0222Z" fill="#FFBA08"/>
<path d="M13.2323 67.4632H20.9118V68.9765H22.4496V76.5336H20.9118V78.047H13.2323V67.4632ZM19.3739 68.9765H16.3031V76.5336H19.3739V68.9765Z" fill="white"/>
<path d="M25.5155 67.4632H34.728V68.9765H28.5864V71.9984H31.6572V73.5118H28.5864V76.5336H34.728V78.047H25.5155V67.4632Z" fill="white"/>
<path d="M39.3367 67.4632H45.4783V68.9765H40.8696V71.9984H45.4783V73.5118H47.0162V76.5336H45.4783V78.047H39.3367V76.5336H43.9405V73.5118H39.3367V71.9984H37.7988V68.9765H39.3367V67.4632ZM37.8037 75.0203H39.3415V76.5289H37.8037V75.0203ZM45.4783 68.9765H47.0162V70.4899H45.4783V68.9765Z" fill="white"/>
<path d="M51.62 67.4632H57.7616V68.9765H59.2994V78.0422H56.2286V75.0203H53.1578V78.0422H50.087V68.9765H51.62V67.4632ZM56.2286 68.9765H53.1578V73.5118H56.2286V68.9765Z" fill="white"/>
<path d="M62.3702 67.4632H71.5827V68.9765H65.4411V71.9984H68.5119V73.5118H65.4411V78.047H62.3702V67.4632Z" fill="white"/>
<path d="M76.1913 67.4632H79.2622V78.0422H76.1913V67.4632Z" fill="white"/>
<path d="M85.4038 67.4632H91.5454V68.9765H93.0784V76.5336H91.5454V78.047H85.4038V76.5336H83.866V68.9765H85.4038V67.4632ZM90.0076 68.9765H86.9368V76.5336H90.0076V68.9765Z" fill="white"/>
<path d="M97.6871 67.4632H103.829V68.9765H99.2201V71.9984H103.829V73.5118H105.367V76.5336H103.829V78.047H97.6871V76.5336H102.291V73.5118H97.6871V71.9984H96.1493V68.9765H97.6871V67.4632ZM96.1493 75.0203H97.6871V76.5289H96.1493V75.0203ZM103.829 68.9765H105.367V70.4899H103.829V68.9765Z" fill="white"/>
<path d="M114.574 67.4632H122.254V68.9765H123.791V73.5118H122.254V75.0251H117.645V78.047H114.574V67.4632ZM120.716 68.9765H117.645V73.5118H120.716V68.9765Z" fill="white"/>
<path d="M128.395 67.4632H134.537V68.9765H136.075V78.0422H133.004V75.0203H129.933V78.0422H126.862V68.9765H128.4V67.4632H128.395ZM133.004 68.9765H129.933V73.5118H133.004V68.9765Z" fill="white"/>
<path d="M139.146 67.4632H146.825V68.9765H148.363V73.5118H146.825V76.5336H148.363V78.047H145.292V76.5336H143.759V75.0251H142.221V78.047H139.15V67.4632H139.146ZM145.287 68.9765H142.216V73.5118H145.287V68.9765Z" fill="white"/>
<path d="M152.962 67.4632H159.103V68.9765H160.641V78.0422H157.57V75.0203H154.5V78.0422H151.429V68.9765H152.967V67.4632H152.962ZM157.57 68.9765H154.5V73.5118H157.57V68.9765Z" fill="white"/>
<path d="M169.854 67.4632H172.925V70.4851H174.462V71.9984H175.995V73.5118H177.533V67.468H179.071V78.047H177.533V76.5336H175.995V75.0251H174.462V73.5118H172.925V78.047H169.854V67.4632Z" fill="white"/>
<path d="M183.675 67.4632H189.817V68.9765H191.354V78.0422H188.284V75.0203H185.213V78.0422H182.142V68.9765H183.68V67.4632H183.675ZM188.279 68.9765H185.208V73.5118H188.279V68.9765Z" fill="white"/>
<path d="M194.42 67.4632H195.958V68.9765H197.496V70.4899H199.034V72.0032H200.567V70.4899H202.105V68.9765H203.643V67.4632H206.713V78.0422H203.643V71.9984H202.105V73.5118H200.567V75.0251H199.034V73.5118H197.496V71.9984H195.958V78.0422H194.42V67.4632Z" fill="white"/>
<path d="M211.312 67.4632H217.454V68.9765H218.992V76.5336H217.454V78.047H211.312V76.5336H209.774V68.9765H211.312V67.4632ZM215.921 68.9765H212.85V76.5336H215.921V68.9765Z" fill="white"/>
<path d="M222.063 67.4632H229.742V68.9765H231.28V73.5118H229.742V76.5336H231.28V78.047H228.209V76.5336H226.676V75.0251H225.138V78.047H222.067V67.4632H222.063ZM228.204 68.9765H225.133V73.5118H228.204V68.9765Z" fill="white"/>
<path d="M235.879 67.4632H242.02V68.9765H243.558V78.0422H240.487V75.0203H237.417V78.0422H234.346V68.9765H235.884V67.4632H235.879ZM240.487 68.9765H237.417V73.5118H240.487V68.9765Z" fill="white"/>
<path d="M246.629 67.4632H254.309V68.9765H255.846V76.5336H254.309V78.047H246.629V67.4632ZM252.771 68.9765H249.7V76.5336H252.771V68.9765Z" fill="white"/>
<path d="M260.45 67.4632H266.592V68.9765H268.13V76.5336H266.592V78.047H260.45V76.5336H258.912V68.9765H260.45V67.4632ZM265.054 68.9765H261.983V76.5336H265.054V68.9765Z" fill="white"/>
<path d="M272.734 67.4632H278.875V68.9765H274.271V71.9984H278.875V73.5118H280.413V76.5336H278.875V78.047H272.734V76.5336H277.337V73.5118H272.734V71.9984H271.196V68.9765H272.734V67.4632ZM271.196 75.0203H272.734V76.5289H271.196V75.0203ZM278.875 68.9765H280.413V70.4899H278.875V68.9765Z" fill="white"/>
<path d="M143.126 7.13089C142.333 6.79565 141.535 6.49873 140.727 6.24013C139.919 5.98152 139.233 5.68939 138.678 5.34936C138.119 5.01413 137.871 4.61664 137.924 4.15689C137.958 3.85518 138.099 3.60615 138.343 3.41459C138.586 3.21824 138.878 3.08415 139.219 3.0171C139.559 2.94527 139.958 2.90695 140.421 2.89738C140.878 2.8878 141.292 2.90216 141.662 2.93569C142.002 2.96921 142.362 3.01231 142.732 3.06978L142.742 3.06499C142.805 3.07457 142.869 3.08415 142.937 3.08415C143.331 3.08415 143.662 2.94527 143.939 2.6675C144.217 2.38974 144.353 2.06408 144.353 1.69054C144.353 1.30741 144.217 0.976971 143.939 0.703995C143.73 0.498067 143.491 0.373552 143.219 0.320872L143.199 0.316083C140.547 -0.172399 138.318 -0.0861961 136.522 0.565113C134.401 1.33615 133.51 2.76328 133.851 4.8513C133.958 5.56008 134.298 6.18266 134.863 6.72382C135.428 7.26498 136.075 7.6912 136.79 7.9977C137.51 8.30899 138.221 8.59154 138.922 8.85015C139.623 9.10876 140.211 9.37695 140.688 9.6595C141.165 9.94205 141.404 10.2581 141.404 10.6125C141.404 11.0914 141.141 11.4219 140.61 11.6086C140.08 11.7954 139.399 11.8337 138.571 11.7284C137.744 11.623 136.99 11.4937 136.308 11.3452C136.119 11.3021 135.934 11.259 135.749 11.2159H135.734C135.588 11.1728 135.437 11.1489 135.277 11.1489C134.834 11.1489 134.454 11.3021 134.143 11.6086C133.831 11.9151 133.676 12.2887 133.676 12.7245C133.676 13.1459 133.831 13.5147 134.143 13.826C134.352 14.0367 134.595 14.1708 134.863 14.2426L134.897 14.2618C135.053 14.3001 135.213 14.3384 135.374 14.3719C136.299 14.5778 137.335 14.7071 138.474 14.7694C139.618 14.8317 140.683 14.7838 141.671 14.6257C142.659 14.4677 143.526 14.0894 144.26 13.4955C144.995 12.9017 145.438 12.1211 145.579 11.1441C145.725 10.1719 145.55 9.34342 145.054 8.66338C144.562 7.97855 143.92 7.46612 143.126 7.13089Z" fill="white"/>
<path d="M159.687 7.13089C158.899 6.79565 158.096 6.49873 157.288 6.24013C156.48 5.98152 155.794 5.68939 155.239 5.34936C154.68 5.01413 154.427 4.61664 154.485 4.15689C154.519 3.85518 154.66 3.60615 154.904 3.41459C155.147 3.21824 155.439 3.08415 155.78 3.0171C156.12 2.94527 156.519 2.90695 156.982 2.89738C157.439 2.8878 157.853 2.90216 158.223 2.93569C158.563 2.96921 158.923 3.01231 159.298 3.06978L159.308 3.06499C159.371 3.07457 159.439 3.08415 159.507 3.08415C159.902 3.08415 160.233 2.94527 160.51 2.6675C160.787 2.38974 160.924 2.06408 160.924 1.69054C160.924 1.30741 160.787 0.976971 160.51 0.703995C160.301 0.498067 160.062 0.373552 159.79 0.320872L159.77 0.316083C157.118 -0.172399 154.889 -0.0861961 153.088 0.565113C150.967 1.33615 150.076 2.76328 150.417 4.8513C150.524 5.56008 150.864 6.18266 151.429 6.72382C151.993 7.26498 152.641 7.6912 153.356 7.9977C154.076 8.30899 154.787 8.59154 155.488 8.85015C156.188 9.10876 156.777 9.37695 157.254 9.6595C157.731 9.94205 157.97 10.2581 157.97 10.6125C157.97 11.0914 157.707 11.4219 157.171 11.6086C156.641 11.7954 155.96 11.8337 155.137 11.7284C154.31 11.623 153.556 11.4937 152.869 11.3452C152.68 11.3021 152.495 11.259 152.31 11.2159H152.295C152.149 11.1728 151.998 11.1489 151.838 11.1489C151.395 11.1489 151.015 11.3021 150.704 11.6086C150.392 11.9151 150.237 12.2887 150.237 12.7245C150.237 13.1459 150.392 13.5147 150.704 13.826C150.913 14.0367 151.156 14.1708 151.429 14.2426L151.463 14.2618C151.614 14.3001 151.774 14.3384 151.94 14.3719C152.865 14.5778 153.901 14.7071 155.045 14.7694C156.188 14.8317 157.254 14.7838 158.242 14.6257C159.23 14.4677 160.096 14.0894 160.831 13.4955C161.566 12.9017 162.009 12.1211 162.15 11.1441C162.296 10.1719 162.121 9.34342 161.624 8.66338C161.123 7.97855 160.481 7.46612 159.687 7.13089Z" fill="white"/>
<path d="M126.244 0.201141C125.685 0.201141 125.208 0.397492 124.813 0.785404C124.419 1.17332 124.225 1.64264 124.225 2.19338V12.7341H124.229C124.244 13.2417 124.439 13.6871 124.818 14.0702C125.213 14.4677 125.689 14.6688 126.249 14.6688C126.809 14.6688 127.286 14.4677 127.68 14.0702C128.059 13.6871 128.249 13.2417 128.264 12.7341H128.269V2.19338C128.269 1.64264 128.074 1.17332 127.68 0.785404C127.281 0.397492 126.804 0.201141 126.244 0.201141Z" fill="white"/>
<path d="M188.892 0.785404C188.498 0.397492 188.021 0.201141 187.461 0.201141C186.901 0.201141 186.425 0.397492 186.03 0.785404C185.636 1.17332 185.441 1.64264 185.441 2.19338V12.7341H185.446C185.461 13.2417 185.656 13.6871 186.03 14.0702C186.425 14.4677 186.901 14.6688 187.461 14.6688C188.021 14.6688 188.498 14.4677 188.892 14.0702C189.271 13.6871 189.466 13.2369 189.476 12.7341H189.481V2.19338C189.481 1.64264 189.286 1.17332 188.892 0.785404Z" fill="white"/>
<path d="M115.883 1.81984C114.345 0.737514 112.228 0.201141 109.528 0.201141C108.987 0.201141 108.515 0.220298 108.111 0.253821C107.707 0.287344 107.24 0.373547 106.71 0.50764C106.179 0.641733 105.741 0.828506 105.401 1.07754C105.06 1.32657 104.768 1.68095 104.525 2.1407C104.281 2.60045 104.16 3.1464 104.16 3.78813V12.6814C104.16 13.213 104.354 13.6775 104.753 14.075C105.148 14.4725 105.625 14.6736 106.184 14.6736C106.744 14.6736 107.221 14.4725 107.615 14.075C108.009 13.6775 108.204 13.213 108.204 12.6814V5.35415C108.204 4.66453 108.35 4.22393 108.637 4.02758C108.924 3.83123 109.43 3.73545 110.15 3.73545C111.012 3.73545 111.722 3.83602 112.282 4.04195C112.842 4.24309 113.25 4.55917 113.508 4.98539C113.771 5.41162 113.942 5.84263 114.019 6.28801C114.102 6.7286 114.141 7.2985 114.141 7.98812V12.6862C114.141 13.2178 114.336 13.6823 114.73 14.0798C115.124 14.4773 115.601 14.6784 116.161 14.6784C116.72 14.6784 117.197 14.4773 117.591 14.0798C117.986 13.6823 118.185 13.2178 118.185 12.6862V5.93841C118.19 4.27182 117.421 2.90216 115.883 1.81984Z" fill="white"/>
<path d="M176.098 5.06202C175.888 5.66543 175.436 5.96235 174.735 5.96235H170.744C170.905 5.0237 171.319 4.30056 171.985 3.78813C172.652 3.2757 173.416 3.0171 174.278 3.0171C174.871 3.0171 175.348 3.17513 175.708 3.496C176.175 3.93659 176.307 4.4586 176.098 5.06202ZM177.339 0.732724C176.448 0.292132 175.402 0.0670471 174.195 0.0670471C172.107 0.0670471 170.336 0.723145 168.88 2.03055C167.425 3.34275 166.695 5.13864 166.695 7.42301C166.695 9.68823 167.411 11.4841 168.842 12.8107C170.272 14.1372 172.01 14.8029 174.063 14.8029C174.837 14.8029 175.635 14.664 176.463 14.3911C176.652 14.3288 176.828 14.2522 177.003 14.1756C177.207 14.1085 177.392 13.9936 177.558 13.8307C177.84 13.5434 177.981 13.2082 177.981 12.8298C177.981 12.4323 177.84 12.0971 177.558 11.8194C177.275 11.5416 176.93 11.4027 176.531 11.4027C176.424 11.4027 176.321 11.4123 176.224 11.4314H176.219C176.107 11.4554 175.991 11.4841 175.854 11.5129C175.411 11.6038 174.954 11.6469 174.467 11.6469C173.621 11.6661 172.837 11.441 172.107 10.9813C171.377 10.5215 170.924 9.85106 170.744 8.96508H174.195C175.436 8.96508 176.506 8.74479 177.407 8.29941C178.307 7.85403 178.954 7.30807 179.349 6.65198C179.743 5.99588 179.937 5.28231 179.928 4.51606C179.918 3.74503 179.709 3.03146 179.295 2.38015C178.881 1.72405 178.229 1.1781 177.339 0.732724Z" fill="white"/>
</g>
<defs>
<clipPath id="clip0_217_206342">
<rect width="288" height="79" fill="white"/>
</clipPath>
</defs>
</svg>
